<svg id="b594bd7e-2a03-435d-b456-eb5ba285b912" data-name="Layer 1" xmlns="http://www.w3.org/2000/svg" width="337" height="118.3" viewBox="0 0 337 118.3">
  <title>comuna-2</title>
  <path id="ac1476eb-24b6-4197-8fc0-a4e3911d47f8" data-name="comuna-2" d="M9,97.2,2.7,98.8.4,39.6l3.8-.5L7,41.2l2.8-.7,3.5.7L18.9,44h4.2l2.8,2.1L30.1,44l2.1,1.4L35,44h4.2s6.3,1.4,7,0,8.4-1.4,8.4-1.4l7,2.1h7.7l8.4,3.5a4.9,4.9,0,0,0,5.6-1.4h27.3l2.8-2.1,4.2-4.9h2.8V33.5l2.8-1.4v2.1L154.7,30l10.5-5.6,2.8-4.9,4.2,1.4,8.4-21,40.2,11.8,17.6,2L223.8,51.1l11.6,3.2,2.8-1.2h6.4l-.2,38.8,46.4-8.4L311,78.3l15.6-7.4,10.8-4.4-6.6,5.6-6.2,4.4-6.4,12.6-4.4,1.6-2.4,3.6L303,98.9s-8.8,1-7.8,4-.2,4.2-.2,4.2l-4.4.6-2.8,3.2-86.2-1.1-23.9-3.5-2.1,11.9L151.8,114l2.1-10.5L107,97.9Z"/>
</svg>
