<?xml version="1.0" encoding="utf-8"?>
<!-- Generator: Adobe Illustrator 23.0.4, SVG Export Plug-In . SVG Version: 6.00 Build 0)  -->
<svg version="1.1" id="Corregimientos" xmlns="http://www.w3.org/2000/svg" xmlns:xlink="http://www.w3.org/1999/xlink" x="0px"
	 y="0px" viewBox="0 0 667 328.5" style="enable-background:new 0 0 667 328.5;" xml:space="preserve">
<style type="text/css">
	.st0{fill:#E8E8E8;stroke:#FFFFFF;stroke-width:0.5;stroke-linecap:round;stroke-linejoin:round;}
</style>
<title>comunas-rurales</title>
<path id="Palmira" class="st0" d="M261.1,199.9l-0.2-2.7l-2.3-0.8l-3.2-1.2l-6.2-1.7l-0.2,0.9l-2.4-0.7l-1.1,0.4l-0.9-1.1l-0.6-0.2
	l-0.7,0.8l-0.6-1.2l-1.1,0.5l-0.7-0.5l-1.2,0.4l-0.5-0.5l-1.7-0.3l-0.3-0.8l-0.4,0.2v0.4h-0.6l-0.6,0.5h-0.4l-0.2-0.5l-1-0.4
	l-0.4,0.8l-0.7-0.2l1,9.9l-2.8-0.3l1.1-2.4l-0.4-0.4v-0.5l-2.1-0.2l-0.4,1.7l1,0.3l-0.3,1.5l-2.2-0.3l0.4-1.5h-1.1l-1-0.6l0.9-2.1
	l-3.6-1.4l0.2-0.9v-1h-0.7v1.2h-1.5l-0.6,1.6h-0.6L220,197l-0.8-0.4l0.3-0.7l-0.3-0.2l-1,2.4l-1.4-0.5l-3.6,6.7l1.1,29.2l4.8-1h2
	l0.4,9.6l0.4,1.1l0.2,1.4l4.3-1.3l-0.7,3.3l0.2,1.7h1.1l-0.7,5.1l-0.8,1l-0.4,1.2v0.7l0.6,1l-0.4,0.9l-0.4,0.7v1.2l2.1-1.1l0.7-0.6
	l0.2,0.4l-1.9,5.9l7.9-0.2l8.7-0.2v-4l6.8-1.8v-9.1h13.5l2.9-1.4v0.4l2.1-2l-2.2-2.4c-1-1.5-1-3.5-0.2-5.1h2.4l1.8-0.3l3.3-2.8
	l4.8-1.2l-0.6-2.9l-9.5-2.6l-1.1,0.3v-4.3c-0.2-0.9-1.1-1.6-2-1.5l0.5-0.6h0.8c0,0,0.2-0.2,0-0.7s1.4-0.7,1.4-0.7l1.5-0.8l0.4-0.6
	l0.8-0.3l1.1-2.2l1.1-0.8l1.2-1l-1.9,0.8l-2.8,1.3l-3.6,0.9l-8.3,1.5v-6.9h-1.1l-0.5,0.2l-2.1-0.6l2.6-6.7l-3.1-0.4l6.9-1.9l0.7-3.2
	L261.1,199.9z"/>
<path id="comuna-8" class="st0" d="M229.9,169L229.9,169l-4.5-35.9l-4.6,1.8l-2.1-0.3l0.9-2.1h-0.1l0.1-0.2l-1.8-0.9l-2.9,2.5
	l-2.2-2.5l-2.1,2.5l-1.2-1.3l-1.2,1.6l-2.3-3.7l-1.8,4.4l-6.5-4.4h-1.9l-2.2-3.4h-3.4l-3.1,3.7l-4.4-4.7l-1.9,1.5l-5.9-2.1l-2.1-3.1
	l-5.9-0.9l-0.7-2.6l-4.3,1.9l-3.2-4.6c0,0-2.8-5.6-3.4-5.6c-1.2-0.4-2.4-1-3.5-1.6l2.6-0.7l-1.8-3.8l0,0l-0.1-0.2l-3.5-2.3l-2.8-3.2
	l-2.3,0.6l1.2-3.9l-0.1-0.2l0,0L140,88l-0.7-2.7l0,0v-0.2h-2.5l-0.8-3l0,0l-0.1-0.2l-3.7,2.1l-3-1.3l-1.6,2.2l-2.8-3.9l-3.6-2
	l-1.2-2.3l-3.8-3.1l-2.5-5.1l-5.6-0.9l-1.8,1.2l-4.7-7.9L98,58l-1.9,1v-3.6l0.7-1.3l-1.3-2.6l-2.8,0.6l-4.8-2.6L86.6,51l-4.4-1.7
	l1.3-2.8l2.7-2.5l-2.1-0.6c-1.3,1.5-2.9,2.8-4.7,3.7c-2.8,1.3-7.5,2.9-7.8,6.3s1.6,9.6,0,11.6s-12.5-0.3-13.8,1.8
	c-1.1,1.8-3.2,4.4-0.2,7.3c0.5,0.6,1.3,1.2,2.3,1.8c4.2,2.4,6.1,5,6,6.9c-0.1,0.8-0.5,1.5-1.3,2c-2.6,1.5-1.6,4-2.6,5
	s-6.6-4.1-8.2-1.3c-1.4,2.5-5,4.8-4.9,8.2c0,0.5,0.1,1,0.3,1.6c1,2.9,2.8,6.1,2.8,8.6c0,1.1-0.3,2.1-1.2,2.9
	c-3,2.6-11.3,2.9-11.6,4.6v0.1l0,0c-0.3,1.7,4.8,3,5.1,8.4c0.1,1,0.1,2,0.1,3c0,2.4-0.2,4.8-0.1,6.9c0,1.8,0.1,3.4,0.5,4.6
	c0.9,2.9,3.9,3.2,3.8,6.2c0,0.2,0,0.4-0.1,0.7c-0.7,3.8-2.5,2.7-2.5,2.7l0.2,0.2c-0.2,0-0.2-0.1-0.2-0.1l4,3.2l7-1.5l7.7,0.4
	l8.8-0.4l6.4-2.6l5.5,1.3l3.7,2.1v-0.1l2.9,1.6l4.8,5.1l3.5-1.5l7,3.8h6.8l1.3-1.1l7.3-0.4l2.9,1.6l5.7,1.7l2.6-1.7l4.4-3.6l7.3-5.3
	l4.8,5.5l13,5.7l10.6-1.3l9.7,2.9l9.7,1.1l8.8,5.1l4.4,2.2l3.3-3.1l4.2-0.9l2.9-2.2h2.9l4,1.2l3.5,1.8l2.7,1.6L229.9,169z"/>
<path id="comuna-9" class="st0" d="M282.8,194.1l-3.7-5.7h2.2h0.1l-2.1-4.1l2.4-0.8l0.1-0.1l0,0l1.7-2.3l-6.3,0.5h-3.3l-2.2,1.7
	l-4.9-0.6l-0.1,0.1l0,0l-0.2,0.3l-0.9,1.3l-4-1.9l-1.7,1.9l-6.5-0.6l-5.8-1l-1.6-1l-2.2,1l-0.3-1.9l-2.3,0.5l-2.2-1.9l-0.8-1.9
	l-1.2-2.8l-2.1-2.9l-1-1.2h-2.1l-0.8-1.4l-0.9-0.7H230v-0.2l-6.1-3.6l-4-1.2H217l-2.9,2.2l-4.2,0.9l-3.3,3.1l-4.4-2.2l-0.1,0.1
	l-8.6-5l-9.7-1.1l-9.7-2.9l-10.6,1.3l-13-5.7l-4.8-5.5l-7.3,5.3l-4.4,3.6l-2.6,1.7l-5.7-1.7l-2.9-1.6l-7.3,0.4l-1.3,1.1h-6.8l-7-3.8
	l-3.6,2.1l-4.8-5.1l-6.6-3.7l-5.5-1.3l-6.4,2.6l-8.8,0.4l-7.7-0.4l-7,1.5L38.2,144c0,0-0.7,0.4,0,2.6s2.9,3.7,2.4,6.2s4,5.3,4,5.3
	s-2.9,5.9-4.4,7l-1.5,1.1l3.1,7.5c0,0,0,5.9-2,9s-0.6,8.4-1.8,11.4s5.6,2.1,5.6,2.1l-2.4,4.6c-1.2,0.9-2.2,2.1-3.1,3.3
	c-1.1,1.8,2.9,7.2,2.9,7.2l-3.3,6.4l-2.2,11.7c0,0-0.7,5.3-1.1,6.8c-0.1,0.6,0.4,1.3,1.1,2.1c1.2,1.2,2.9,2.3,2.9,2.3
	c-0.2,0.4-0.4,0.8-0.6,1.2c-0.5,1.2-0.9,2.5-1.2,3.9c-0.7,3.1,2.4,5.1,2.4,5.1l-1.1,3.7c0,0-3.5,3.3-3.5,6.8s5.3,2.7,5.3,2.7
	l1.8-1.5l3.3,1.5l1.4,5.9l41.6-9.5l1.8,2H94l5.7,1.5l5.2,3.3l5.6,0.9l2.7-2.2l11.9,4.4l8.2,0.7l6.1,2.2l14.7-0.9l9.8,5.2l3.1-1.6
	l3.7-0.8l8.6-3.1l1.5-2.2l2.5-0.4l12.4-4.4l9.7,0.5l9.1-2.5l10.3-3.6v-1.2l0.4-0.7l0.4-0.9l-0.6-1v-0.7l0.4-1.2l0.8-1l0.7-5.1h-1.1
	l-0.2-1.7l0.7-3.3l-4.3,1.3l-0.2-1.4l-0.4-1.1l-0.4-9.6h-2.1l-4.7,1l-0.9-21.9l0,0v-0.2h0.2l0.9,22l-1.1-29.2l3.5-6.5l1.2,0.4
	l0.1-0.2l0.2,0.1l0.9-2.2l0.1,0.1l-0.3,0.7l0.8,0.4l0.1-0.2l0.2,0.1l0.1-0.3h0.3v-0.1h0.3l0.6-1.5h1.2v-0.1h0.3v-1.1h0.4v1l-0.2,0.9
	l3.6,1.4l-0.9,2.1l1,0.6h1.3l-0.4,1.4l0,0v0.1l2.2,0.3l0.3-1.5l0,0v-0.1l-1-0.3l0.4-1.6l2.1,0.2v0.4v0.1l0.4,0.4l-1.1,2.3l0,0v0.1
	l2.8,0.3v-0.1l0,0l-0.9-9.2l0.5,0.2l0.4-0.8l1,0.3l0.1,0.5l0.4,0.1l0.6-0.5l0.6,0.1v-0.4l0.4-0.1l0.4,0.8l1.6,0.2l0.5,0.6l1.3-0.4
	l0.7,0.6l1.1-0.6l0.6,1.2l0.7-0.8l0.7,0.2l0.9,1.1l1.1-0.4l2.3,0.7l0.3-1l6.2,1.7l3.2,1.3l2.3,0.8l0.1,2H260l-0.7,3.2l-6.9,1.9
	l2,0.3l-1.9,0.5l2.7,0.3l-2.3,6l0.3,0.1l-0.2,0.6l2.1,0.6l0.5-0.3h1v6.3h0.1v0.7l8.3-1.5l3.6-0.9l2.8-1.3V206l4.6-3.6l6.9-6.2
	l-0.2-1.8L282.8,194.1z"/>
<path id="comuna-10" class="st0" d="M135.3,295.3l-2.2-1l-3.9-1.7l0.6-1.9l0,0v-0.1l-0.9-1.8l0,0l0,0h-2.6l-3.4-1.9l-1.1-2l0,0l0,0
	l0,0l-2.4-0.9l-0.4-1.1l-0.2-0.7l-2.2-0.8l-2.6-2l-1.6-2l20.8-6.3l-8.2-0.7l-11.8-4.5l-2.6,2.2l-5.6-0.9l-5.2-3.3l-5.7-1.5h-4.5
	l-1.8-2L50.1,269v-0.1l-3.9,1l-1.5-5.9l-3.3-1.5l-1.8,1.5c0,0-5.3,0.8-5.3-2.7s3.5-6.8,3.5-6.8l1.1-3.7c0,0-3.1-2-2.4-5.1
	c0.4-1.8,1-3.5,1.8-5.1c0,0-4.4-2.9-4-4.4s1.1-6.8,1.1-6.8l2.2-11.7l3.3-6.4c0,0-4-5.5-2.9-7.2c0.9-1.2,1.9-2.4,3.1-3.3l2.2-4.6
	c0,0-6.8,0.9-5.6-2.1c-1.2,2.9-10.3-2.9-10.3-2.9s-15.6-1.3-17.8,1.6c-2.2,2.9-5.1,6.9-4.6,9.8c0.5,2.9,0.2,5.7,4.2,7.3
	s11.2,3.3,11.2,3.3s5.7,0,7,1.5s3.5,2.6,2.9,5.3s0.4,6.4-3.3,5.7s-8.8-7.9-11.2-7.5s-12.7,6.7-12.7,9.4s4.2,5.3,2.6,9.3
	s-2,6.8-4.2,8.8s2,7.5,1.8,9.5c-0.2,2-4.1,10.5-2.4,11.9l1.7,1.3c0,0,7,2.2,7.5,4.6c0.1,0.6,0.3,1.5,0.5,2.6
	c0.1,0.5,0.2,1.1,0.4,1.7c0.3,1.4,0.6,2.8,1,4.1c0.4,1.4,0.9,2.7,1.4,3.3l0,0c1,1.4,4.2,4.6,4.2,7s2.9,5.9,3.3,8.6
	c0.2,1.3,0.7,2.8,1.2,4.4c0.3,1.2,0.6,2.4,0.7,3.6c0,0.4,0,0.8-0.1,1.2c-0.1,0.8-0.4,1.4-0.8,1.9c-0.2,0.2-0.4,0.5-0.6,0.7
	c-1,0.9-2.1,1.5-2,3.1c0,0.2,0,0.4,0.1,0.5c0.7,3.1-0.2,7,1.5,9.8s4.2,0,4.2,0l5.3-1.8l5.1-1.1l3.1,0.2l2.1-1.4v1.3h0.1v0.1l4.4-2
	l7.2,3.6v0.1l0.7,3.8h0.1l0,0h5.5l6.3-2.8l4.6,1h0.1l0,0l8.4-1l5.3-3l13.7-0.2l8.1-0.2v-6.7l0.5-10.8v-12.9l8.5,2.1l8.7,3.4l5.9,6
	l4.5-1.9l0,0l0.2-0.1L135.3,295.3z"/>
<polygon id="comuna-11" class="st0" points="267.9,245.7 265.8,247.7 265.8,247.3 262.9,248.7 249.4,248.7 249.3,257.7 242.5,259.5 
	242.4,263.6 233.7,263.8 225.8,264 227.7,258.2 227.6,257.8 226.8,258.4 224.7,259.5 218.6,261.6 214.4,263.1 205.2,265.6 
	195.5,265 183.2,269.5 180.7,269.9 179.2,272 170.6,275.2 166.9,275.9 163.8,277.5 154,272.4 139.3,273.2 133.1,271.1 112.4,277.4 
	114,279.5 116.7,281.5 118.8,282.3 119.5,284.1 121.9,284.9 123,287 126.4,288.9 128.9,288.8 129.8,290.7 129.2,292.7 133,294.4 
	135.2,295.4 133.2,301.1 128.7,303 122.9,297.1 114.2,293.7 105.5,291.6 105.5,304.5 104.9,315.3 104.9,322 106.7,322.9 115.9,324 
	121.3,322.6 127.9,326 132.8,325.4 138.6,326.7 144.6,328.2 146,322.6 149.2,323.9 159.5,320.9 167.7,319.8 170.5,321.8 
	175.2,320.3 179.1,318.6 185.9,321.2 187.7,321.3 189.7,316.5 197.3,319.6 201.3,319.4 202.3,318 204.7,319.1 207.7,317.5 
	207.1,315.1 210.4,314.7 211.2,315.6 213,314.7 213.6,315.5 215.4,314.3 217.2,311.9 219.4,310.2 219.2,307.8 223.4,305.8 
	226.2,301.7 229.7,301.2 232.5,302.3 235.8,304.1 238.3,304 238.1,301.6 240.2,301 243.9,282.7 248.8,281.6 252.6,278.8 
	257.9,275.9 260.2,269.9 260.2,261.9 264.9,259 267.8,257.2 269.6,258 274.5,252.5 "/>
<polygon id="comuna-12" class="st0" points="358.1,136.1 357,131.5 355.7,124.8 357,120.3 351.6,119.5 344.6,120.9 334,119.5 
	326.8,120.6 320.5,119.5 317.3,119.5 312.7,120.7 310.3,119 306.9,119.5 304,119.5 297.9,120.8 297.1,123.7 294.7,123.3 
	291.3,127.1 288.3,128.6 287.1,129.8 285.2,129.3 282,131.7 278.4,131.3 276.1,133.4 269,134.7 266.7,136.4 266.3,138.5 
	262.7,139.2 261.1,140.7 257.4,137.9 256,140.8 249.8,140.1 247.7,138.2 245.9,141.5 242.1,140.1 241.4,137.6 238.4,138.4 
	236.2,136.2 232.5,138.1 229.6,137.3 229.3,134 225.4,133.1 229.9,169 230.8,169.7 231.6,171.1 233.7,171 234.8,172.1 236.9,175 
	238,177.8 238.8,179.7 241,181.6 243.4,181.1 243.7,182.9 245.9,181.9 247.6,182.9 248.7,183.2 253.4,184 259.9,184.6 261.6,182.7 
	265.6,184.6 266.7,182.8 271.6,183.4 273.8,181.7 277.1,181.7 283.4,181.2 290.8,182.6 295.9,181.9 300.8,186.8 304.5,188.4 
	306.8,187.6 307.4,183.9 307.4,180.7 310.7,178.6 312,174.3 313.6,174.5 314,171.5 320.8,169.3 321.6,167.6 323.7,166.9 
	330.3,160.6 336.3,161 335.5,165.4 336.9,172.1 337.2,177 341.1,177.8 343.5,175.7 351,155.5 356.9,152 358.1,148.5 359.3,139.9 "/>
<path id="comuna-13" class="st0" d="M411.8,159.6l0.2-4.9l0.3-6.6l-1.5-4l-2.4-5.9v-6.9h-0.2l0,0l-3.4,0.5l-7.7,2l-4.4-1.4l-5.5-1.8
	v-4.1l-6.2-2l-5.6-1.6l-2.5-1.7l-5.9-1.7h-0.1h-0.2l-4.4,1.7l-5.3-0.9v0.1h-0.3l-1.3,4.5l1.3,6.7l1.1,4.5l1.2,3.8l-1.2,8.6l-1.2,3.5
	l-5.9,3.5l-7.4,20.2l-2.4,2.1l-3.7-0.8l-0.3-4.9l-1.4-6.7l0.8-4.4l-6-0.4l-6.7,6.3l-2.1,0.7l-0.8,1.7l-6.8,2.2v0.1h-0.1l-0.3,2.9
	l0,0l0,0l-1.6-0.2l-1.3,4.3l-3.3,2.1v3.2l-0.1,0.7l-0.6,3l-2.2,0.8l-3.7-1.6l-4.9-4.9l-5.1,0.7l-7.4-1.4l0,0l0,0l-1.6,2.2h-0.1
	l-2.5,0.8l0.2,0.4l0,0l1.9,3.8H279l0.3,0.4h-0.2l3.6,5.6l0.2,1.6l-6.9,6.2l-4.6,3.6v9.8h0.1v0.4l0.7-0.3l-0.1,0.1l-1.1,0.8l-1.1,2.2
	l-0.8,0.3l-0.4,0.6l-1.5,0.8c0,0-1.6,0.2-1.4,0.7s0,0.7,0,0.7H265l-0.5,0.6c0.1,0,0.3,0,0.4,0l-0.3,0.4c0.8-0.1,1.6,0.4,1.9,1.2v4.2
	h0.1v0.4l1.1-0.3l9.5,2.6l0.1,0.3l0.5,2.6l-0.3-1.7l24.1-5.7l12.8,23.1l14.3,10.9v-0.1l0.2,0.1V254l2.3-3.1l1.8-4.8V246l0.6-7.4l0,0
	v-0.1l-0.2-2.6l1.8-1.3V233l1.7-0.5l2.3-0.6l5.5-31.8l2.3-0.6v-1.3l5.6-1v-4.4l1.5-2.2l0.6-2.3h2.9l0.2-4.1l-1.8-3.8l-0.1-3.2
	l2.2-2.1l0.7-5.5l5.7,1.2l2-0.9l2.6-1.8l4.3,1.1l2.6-0.7l3.2,0.3l5.5,0.3l1.7-2.9l1.5,0.9l5,1.3l3.6,5.2h0.2l0.1,0.2l6.7,0.9l6-2.6
	l3.6-4.6l0.2-6.4L411.8,159.6z"/>
<path id="comuna-14" class="st0" d="M576.5,303l0.2-0.3l-1.4-2.1l-4.8-6.9l-4.3-5.8l-0.7-2.1l-7.4-0.7l-3.8-2l-6.1-1.1l-6-1l-7-1.4
	l-3.9-2.7l0.5-3.1l-4.4-2.6l-6.1-3.6h-2l-5.4-3.2l-3.7-1.4l-2.7-2.2l-5.9-1.5l-6.8-1.1l-6.9-3.3l-6-5.3l-1.4-1.9H478l-2-1.4h-1.8
	l-2.5-2.9l-8.7,0.2l-7.1-2.3l-2.7,1.7l-8.1,0.2l-2.2,1.2l-6-1h-3.8l-4.4,2.9l-6.3-0.6L417,243l-3.4,1.6l-1.7-1.6l-3.4-0.2l-2.2,0.9
	h-4.7l-5.4-0.6l-5.2-2.2l-6.6-3.6l-4.9-4.3l-3.7-5.4l-2.5-6.7l-3.7-7.8l-4-1.4l-0.5-1.4l-2.6-2.6v-2.3l-3.4-1.1l-1-1.7l-6.4-1
	l-4.7-2.1h-0.1l0,0l-2.3,0.6l-5.4,31.8l-2.3,0.6l-1.7,0.5l-0.1,1.6l-1.8,1.3l0.3,2.7l-0.6,7.5v0.1l-1.8,4.8l-2.4,3.1l-0.1,6.3
	l-14.1-10.6l-13.1-23.3l-24.2,5.7l0.3,1.7l-4.8,1.2l-3.3,2.8l-1.8,0.3h-2.4l0,0c-0.8,1.6-0.8,3.6,0.2,5.1l2.2,2.4l6.6,6.8l-4.9,5.5
	l-1.8-0.8l-2.8,1.8l-4.7,2.9l0,0v8l-2.3,6l-5.3,2.9l-3.8,2.9l-4.9,1l-3.6,18.4l0,0l0,0l5.1,2l0,0l0,0l0.9-0.4l2.5-0.9l0,0l0,0
	l-0.3-2.3l1.5-0.5l0.8-0.3l1.7-3.1l2.7,2.3l3.9-3.9l4.4,1l2.5-0.9l0.9-0.4l3.1,1.6l5.7-2.1l2-2.3l3,0.5l7.8-2.1l4.1-2.4l2.4-1.5
	l5.2,3.9l2.6-0.5l8.3,2.6l-0.1,0.1l2.7,0.9l3.4,2l5.9-1l8.1,1.8l9.4-1.5l13.7,2.3l9.9,1l14-5.2l13.7,8.1l9.6,3.3l5.5-1.8v-0.3h0.1
	l-0.3-2.8l11.6,2.6v-0.3h0.1l0.5-7.7l6.9,3.6l7.6-2.8l16.3,4.6l6.8-1.3l8.5-10.4l7.8-7.5l11.2,6.2l10.4,3.7l5.4,3.1l8.3,1.6l8.9-0.3
	l3.3,8.3l-1.5,7.4l2.8,3.5l5.8,1l2,5.5l5.2,2.8l8.1-6.4l9.8,2.3l3.9,2.8l3.9,1.3l1.3,2.4l5.2,1.3h3.6v-0.4h0.2l0.5-6.2l3.2-5.1v-0.1
	l0.2-0.3l-0.8-4.6L576.5,303L576.5,303z"/>
<polygon id="comuna-15" class="st0" points="663.5,48.9 663.5,45.8 661,41 657.1,33.7 654,27.3 656.5,20.3 655.1,15 658.5,12.8 
	657.4,9.4 653.2,8.6 649.3,11.1 644.3,7.7 637.3,4.1 628,0.3 614.3,3.9 609.8,1.9 598.1,1.9 591.1,7.8 583.3,15.9 576.3,21.2 
	573.8,25.4 567.4,31.8 561.5,36.8 560.1,44.1 555.9,47.5 548.4,49.7 543.9,55.8 540.5,56.4 536.9,65.9 534.7,72.6 527.3,73.4 
	522.5,79.5 520.3,85.4 515.5,89.3 510.5,99.1 511.3,104.3 511,109.9 508.8,108.5 504.9,108.8 504.8,108.9 504.8,108.9 496.2,117.7 
	492,117.7 483.3,119.7 476,122.5 471,127 462.6,126.2 452.5,127.3 444.2,123.4 444.1,123.5 444.1,123.4 433.2,126.2 421.2,129.6 
	421.2,129.6 408.4,131.3 408.4,131.4 408.3,131.4 408.3,138.2 410.8,144.1 412.3,148.1 412,154.7 411.7,159.5 411.8,159.6 
	413.2,161 412.9,167.4 409.3,172 408.2,176.5 409.8,177.6 409.3,186.8 413.1,191.1 410.9,192.4 408.4,191.2 408.4,191.2 
	408.2,191.1 402.7,191.1 399.6,193.2 389.6,192.7 386.3,191.1 386.3,199.4 390.6,203.9 390.9,204 390.9,204 393.7,204.8 396,206.5 
	396,206.5 396.2,206.6 398.3,203 400,203.7 398.7,206.5 401.5,209.8 398.4,209.8 396.4,210.6 396.4,213.4 395.3,213.2 393.8,212.9 
	393.8,212.9 393.5,212.9 393.5,215.5 388.7,217 393.5,220.3 395.6,222.1 395.6,230.8 396,230.5 396,230.8 401,226.7 401,230.8 
	403.8,231.3 403.9,231.3 404.1,231.3 408,230.1 409.4,233.7 409.7,233.6 409.7,233.7 411.8,232.7 413.7,233.7 414.1,233.7 
	416.5,233.7 416.9,233.7 417.7,232.3 419.5,235.1 421.8,237.1 422.1,237.1 422.2,237.2 424.5,237.2 423.5,227.6 423,223.6 
	420.7,220.6 423.7,219.2 424.4,220.5 424.8,220.5 424.8,220.6 431.9,221.4 431.4,217.5 434,215.7 436.1,218.1 436.3,217.9 
	436.5,218.1 438.8,216.5 439.6,211.5 444.8,212 448.4,214 448.5,213.9 448.8,214 450.8,212.2 453.4,207.1 456.4,204.2 458.3,206.8 
	461.4,207.6 461.4,207.5 461.8,207.6 462.3,202.5 464.5,199.7 469.6,202.7 468.6,205.3 467.8,208.6 468.2,208.6 468.2,208.6 
	471.2,208.4 473.5,209.3 475.5,215.2 475.9,215.2 475.9,215.2 479.2,215 477.2,212.9 479.9,210.6 479.9,206.8 481.2,205 485,204.5 
	486.1,200.7 484.5,197.2 485.8,192.4 489.5,193.1 489.6,193 489.9,193 492.1,190.1 495.9,191.2 495.9,191.1 496.3,191.2 
	498.8,184.6 501.1,183.5 501.1,188.7 504.7,191.2 503.7,194.6 501.9,199.5 500.4,202.7 500.6,202.7 500.6,202.7 504.2,202.5 
	505.4,202.8 506.8,203.2 506.8,203.1 507,203.2 506.5,199.5 507.2,197.2 509.8,194.1 512.9,193.8 512.1,191.2 512.5,185.2 
	515.9,184.5 516.7,184.4 514.4,182.1 513.4,179.3 517.1,180.1 524.2,182.7 523.9,187 531.2,183.4 531.2,183.4 531.4,183.3 
	533.2,179.1 537.2,177.8 540.6,180.1 546.2,182.1 549.3,183.9 555.9,189.2 564.6,187.3 568.7,188.8 574.1,191.9 581.8,197.3 
	582.8,199.6 585.3,199.6 592.3,205.6 594.1,209.9 600.7,213 604.3,216.1 608.6,223.3 608.7,223.1 608.7,223.2 610.9,215.7 
	617.4,206.7 621.6,200.9 621.8,196.4 626.5,192.6 626.5,192.6 626.6,192.5 623.3,188 623.2,188 623.2,187.9 623.2,187.9 
	621.5,185.5 618.7,175.5 620.1,173.5 623.7,175.5 626.2,175.5 625.9,173 625.8,172.9 625.8,172.8 622.8,169.5 624.8,157.6 
	624.7,157.4 624.7,157.4 621.9,152.4 616.7,147.5 616.1,143.1 612.2,131.6 620,126.3 621.7,114.3 618.1,106.8 618.1,106.8 
	618,106.6 613.9,101.8 614.2,98.3 615.9,95.8 620.1,92.7 627.9,93.8 633.5,92.4 635.2,87.1 634.4,79 636.4,74.5 639.2,74.5 
	643.7,68.9 649.8,66.1 657.9,66.1 663.5,56.6 666.6,54.9 666.6,54.7 666.6,52 "/>
<polygon id="comuna-16" class="st0" points="608.4,228.2 608.7,223.2 604.4,216 600.8,212.9 594.2,209.9 592.4,205.5 585.4,199.5 
	583,199.5 582,197.2 574.3,191.8 568.9,188.7 564.8,187.2 556.1,189.1 549.5,183.8 546.5,182.1 540.8,180 537.4,177.7 533.2,179 
	531.4,183.3 524.1,186.9 524.3,182.6 517.2,180 513.4,179.3 514.4,182.1 516.7,184.4 512.6,185.1 512.1,191.2 512.9,193.8 
	509.8,194.1 507.2,197.2 506.5,199.5 507,203.2 504.2,202.5 500.6,202.7 502.1,199.5 503.9,194.6 504.9,191.2 501.4,188.7 
	501.4,183.3 498.8,184.6 496.3,191.2 492.2,190 489.9,193 485.8,192.3 484.5,197.2 486.1,200.7 485,204.5 481.2,205 479.9,206.8 
	479.9,210.6 477.2,212.9 479.2,215 475.9,215.2 473.8,209.4 471.3,208.4 468.2,208.6 469,205.3 470,202.7 464.6,199.5 462.3,202.5 
	461.8,207.6 458.8,206.8 456.7,204 453.4,207.1 450.8,212.2 448.8,214 445.2,211.9 439.6,211.4 438.8,216.5 436.5,218.1 
	434.2,215.5 431.4,217.5 431.9,221.4 424.8,220.6 424,219.1 420.7,220.6 423,223.6 423.5,227.6 424.5,237.2 422.2,237.2 420,235.2 
	417.9,232.1 416.9,233.7 414.1,233.7 412,232.6 409.7,233.7 408.4,230 404.1,231.3 401.3,230.8 401.3,226.5 396,230.8 396,224.8 
	396,222.1 393.8,220.3 389.1,217 393.8,215.5 393.8,212.9 396.7,213.5 396.7,210.6 398.8,209.9 401.8,209.9 399,206.6 400.3,203.8 
	398.3,203 396.2,206.6 393.8,204.8 390.9,204 386.5,199.5 386.5,195.8 386.5,191.2 389.8,192.8 399.8,193.3 402.9,191.2 
	408.4,191.2 411,192.5 413.3,191.2 409.5,186.9 410,177.7 408.4,176.6 409.5,172.1 403.5,174.7 396.8,173.8 393.1,168.5 
	387.9,167.1 386.4,166.2 384.7,169.1 379.2,168.8 376,168.5 373.4,169.2 369.1,168.1 366.5,169.9 364.5,170.8 358.8,169.6 
	358.1,175.1 355.9,177.2 356,180.4 357.8,184.2 357.6,188.3 354.7,188.3 354.1,190.6 352.6,192.8 352.6,197.2 347,198.2 347,199.5 
	351.7,201.6 358.1,202.6 359.1,204.3 362.5,205.4 362.5,207.7 365.1,210.3 365.6,211.7 369.6,213.1 373.3,220.9 375.8,227.6 
	379.4,233 384.4,237.3 391,240.9 396.3,243.7 401.7,244.3 406.3,244.3 408.5,243.4 412,243.7 413.7,245.3 417.1,243.7 422.5,246.4 
	428.8,247 433.2,244.1 437,244.2 443,245.2 445.2,243.9 453.4,243.7 456.1,242 463.2,244.3 471.9,244.1 474.3,247 476.2,247 
	478.1,248.4 480.6,248.4 482,250.3 488,255.6 494.8,258.9 501.6,260 507.5,261.5 510.2,263.7 513.9,265.1 519.3,268.2 521.2,268.2 
	527.2,271.8 531.6,274.4 531.1,277.5 535,280.2 542,281.5 548,282.5 554.2,283.6 558,285.6 565.3,286.3 566.1,288.4 570.4,294.2 
	575.2,300.9 576.5,303 578.5,299.4 578.5,296.5 579.6,292.6 577,289.6 575.3,285.8 572.9,283.6 573.8,280.5 574.1,276.8 577,274.9 
	580.6,271.2 583.5,266.8 586,263.2 587.2,258.7 592.2,254.3 602.2,246.3 604.6,242 602.8,235.5 603.1,232.2 "/>
</svg>
