<svg id="ed971e08-33cb-4ac4-9da5-e0ede1180aca" data-name="Layer 1" xmlns="http://www.w3.org/2000/svg" width="269.3" height="114.7" viewBox="0 0 269.3 114.7">
  <title>comuna-1</title>
  <path id="f3a14e29-96ea-49cc-be44-1986e70f03a5" data-name="comuna-1" d="M5.1,105.2l-3.8.5L0,69.6,20,32.2,27.6,35l5.7-13.2,1.8,1.4-1.8,4,4.4,2.1,1.2-2.1,3.2.4,3.6-8.8,8.6.4.8-6.5h3.8v5.5l-1.4,5.2,20,7.6-5,11.6,5.6,3.6,6.4.8-2.4,8.6,12.4,1.6,1.8-8.6L90.5,47l2.2-9.6,11.6,1.2v3l2,2-6,13.4,15.8,1.6L110.5,3.4l3.8,1L116.5.1l5.4,2,1,2.8,2.2.4,3.2-2.8,3.6.8V1l2.2-1,1.8,4.4L145.3,6l2.8,3,6.8-2,4.2,3,6-3,3.6,6.6,4-4.6,3.6,1.2,5.2,6.2,6-2.2L200.7,18l1.4-5.3,34.8,9.5,18.2,7,13,4.6,1.2,15-4.8.6-4.2,18L221.8,77.8,181.5,66l-8.4,21-4.2-1.4-2.8,4.9-10.5,5.6-31.5,4.2V98.2l-2.8,1.4v6.3h-2.8l-4.2,4.9-2.8,2.1H84.2a4.8,4.8,0,0,1-5.6,1.4l-8.4-3.5H62.5l-7-2.1s-7.7,0-8.4,1.4-7,0-7,0H35.9l-2.8,1.4L31,110.1l-4.2,2.1L24,110.1H19.8l-5.6-2.8-3.5-.7-2.8.7Z"/>
</svg>
