<svg id="mapa-com-urbanas" data-name="Comunas Urbanas" xmlns="http://www.w3.org/2000/svg" width="518.7" height="583.2" viewBox="0 0 518.7 583.2">

  <g>
    <title>Comuna 1</title>
    <path id="comuna-1"  data-toggle="modal" data-target="#comuna-urbana-1" data-name="Comuna 1" d="M7.6,150.4l-5.4.8L.3,99.6,28.8,46.2l10.8,4,8.3-18.8,2.6,2-2.6,5.7,6.3,3,1.7-3,4.6.6,5.1-12.6,12.3.6,1.1-9.3h5.4v7.9l-2,7.4L111,44.5l-7.1,16.6,8,5.1,9.1,1.1-3.4,12.3,17.7,2.3,2.6-12.3-8.3-2.3,3.1-13.7,16.6,1.7v4.3l2.9,2.9-8.6,19.1,22.6,2.3-8-78.8,5.4,1.4L166.7.3l7.7,2.9,1.4,4,3.1.6,4.6-4,5.1,1.1V1.7L191.8.3l2.6,6.3,13.4,2.3,4,4.3,9.7-2.9,6,4.3,8.6-4.3,5.1,9.4,5.7-6.6,5.1,1.7,7.4,8.9,8.6-3.1,18.8,5.4,2-7.6,49.7,13.6,26,10,18.6,6.6,1.7,21.4-6.9.9-6,25.7-54.8,14.8L259.6,94.4l-12,30-6-2-4,7-15,8-45,6v-3l-4,2v9h-4l-6,7-4,3h-39a6.8,6.8,0,0,1-8,2l-12-5h-11l-10-3s-11,0-12,2-10,0-10,0h-6l-4,2-3-2-6,3-4-3h-6l-8-4-5-1-4,1Z"/>
  </g>
  <g>
    <title>Comuna 2</title>
    <path id="comuna-2" data-name="Comuna " d="M14.6,233.4l-9.1,2.4L2.3,151.2l5.4-.8,4,3,4-1,5,1,8,4h6l4,3,6-3,3,2,4-2h6s9,2,10,0,12-2,12-2l10,3h11l12,5a6.8,6.8,0,0,0,8-2h39l4-3,6-7h4v-9l4-2v3l45-6,15-8,4-7,6,2,12-30,57.5,16.9,25.1,2.9-20.8,53.4,16.6,4.6,4-1.7h9.1l-.3,55.4,66.2-12,28.8-7.4,22.3-10.6,15.4-6.3-9.4,8-8.9,6.3-9.1,18-6.3,2.3-3.4,5.1-12,6.6s-12.6,1.4-11.1,5.7-.3,6-.3,6l-6.3.9-4,4.6-123.2-1.5-34-5-3,17-34-6,3-15-67-8Z"/>
  </g>
  <g>
    <title>Comuna 3</title>
    <path id="comuna-3"  data-name="Comuna 3" d="M140.6,312.4l-16.1-78.2-109.9-.8-9.1,2.4,3.8,97.1,38.5-8.3,16.8.9,2.9,76.8,2.9,9.1,1.7,10.8L106.5,412s11.5-4.7,15.2-6.5c2-1,13-3,18-30l10-59Z"/>
  </g>
  <g>
    <title>Comuna 4</title>
    <path id="comuna-4"  data-name="Comuna 4" d="M160.6,324.4c-2-4-11-8-11-8l-9-4-16.1-78.2,30.1.2,67,8-3,15,34,6,3-17,34,5,2,53v26l2,7-8,2-8-1-11,3h-8l-9-1-8-1-7-7-27-3-26-5-6,3Z"/>
  </g>
  <g>
    <title>Comuna 5</title>
    <path id="comuna-5"  data-name="Comuna 5" d="M394.6,394.4l27.3,23s-12.8-16.3-1.7-41.1l19.4-.9,14.3-2.6,26.3-22.6,38.3-9.4-4.9-23.4-76.2-20.6-9.1,2.3.3-34.3s-1.4-11.4-15.7-12l-123.2-1.5,2,53v26l2,7,9-2h10l-2,23,26,3-3,12Z"/>
  </g>
  <g>
    <title>Comuna 6</title>
    <path id="comuna-6"  data-name="Comuna 6" d="M307.6,393.4l25.5,66.8h66l23.4-10.8v3.4l17.1-16.3L422,417.4l-27.3-23-61-21,3-12-26-3,2-23h-10l-9,2-8,2-8-1-11,3h-8l-9-1-8-1-7-7-27-3-26-5-6,3-15-3c-2-4-11-8-11-8l-9.4,55.5,119.4,16.5Z"/>
  </g>
  <g>
    <title>Comuna 7</title>
    <path id="comuna-7"  data-name="Comuna 7" d="M259.6,388.4,140.2,371.9l-.6,3.5c-5,27-16,29-18,30-3.7,1.8-15.2,6.5-15.2,6.5L101,438.2l1.7,13.4h9.1l-6,40.8-6.6,8.3-2.9,9.7-1.1,6,5.1,7.7L97.6,531l-3.1,6-.6,10,17.1-8.9,5.7-4.9,1.4,2.9L103,583l62.8-1.7,69.7-1.7.6-32.3,54.5-14.6.6-72.5h41.9l-25.5-66.8Z"/>
  </g>
</svg>
