<svg xmlns="http://www.w3.org/2000/svg" width="95.3mm" height="97.2mm" viewBox="0 0 270.2 275.4">
      <path id="comuna-10-guanabanal" data-name="Guanabanal" d="M 113.2 258.4 124.3 271.7 129.2 269.5 138.5 271.5 155.2 269.5 165.8 263.6 193.1 263.1 209.2 262.7 209.2 249.3 210.3 227.8 210.3 201.8 227.7 205.9 245.2 212.7 257 224.7 266 220.9 269.9 209.3 265.6 207.4 257.9 203.9 259.1 199.8 257.4 196.2 252.3 196.4 245.4 192.5 243.2 188.4 238.3 186.7 237 183 232.7 181.5 227.3 177.4 224.1 173.4 265.8 160.7 249.5 159.2 225.7 150.4 220.4 154.8 209.2 153.1 198.8 146.5 187.4 143.5 178.6 143.5 175 139.4 99.4 156.6 99.9 165.6 111.8 168.1 106.4 173.5 110 185.3 108.2 199.6 105.7 210.4 108.5 229.7 113.9 247.3 113.2 258.4z"/>
      <path id="comuna-10-caucaseco" data-name="Caucaseco" d="M100.5,253.2l3.7,14.4,1.3,7.6h11l7.8-3.5-11.1-13.3.7-11.1-5.4-17.6-2.9-19.3,2.5-10.7,1.8-14.3-3.6-11.8,5.4-5.4-11.8-2.5-.5-9-7.6,1.7L68.4,164,57,168.8l-25.5,2.1L28.3,172l7.1,18.3,3.5,4.6s.2,5.9.9,8S45,211,45,211l1.2,9.4,2.8,8.7,18.6-5.9,17.2-5.3,5.3-2-1.2,10.3,3.9,15.2Z"/>
      <path id="comuna-10-juanchito" data-name="Juanchito" d="M80.8,260.9V264l8.8-4,14.5,7.5-3.7-14.4-7.6-11.7-3.9-15.2,1.2-10.3-5.3,2-17.2,5.3L49.1,229l-2.8-8.7L45,211s-4.4-6-5.1-8.2-.9-8-.9-8l-3.5-4.6L28.3,172l-7.4-.7c1.3,6.1,3.2,13.8,5.3,16.6s8.4,9.2,8.4,14.1,5.7,11.9,6.6,17.2,4.4,11.9,3.5,18.5-7.9,6.2-6.6,12.3-.4,14,3.1,19.6,8.4,0,8.4,0l10.6-3.7,10.1-2.2,6.2.4Z"/>
      <path id="comuna-10-ladolores" data-name="La Dolores" d="M20.9,171.3l7.4.7h0l3.2-1.1L57,168.8,68.4,164l23.4-5.6-3.1-11.8-6.6-3-3.5,3S68,148.2,68,141.2s7-13.7,7-13.7l2.2-7.5s-6.2-3.9-4.8-10.1A40.1,40.1,0,0,1,76,99.8S67.2,94.1,68,91s2.2-13.7,2.2-13.7L74.6,54l6.6-12.8s-7.9-10.9-5.7-14.5a30.5,30.5,0,0,1,6.2-6.6l4.4-9.2S72.4,12.6,74.9,6.7C72.4,12.6,54.4.9,54.4.9S23.1-1.8,18.7,4.1,8.6,17.9,9.5,23.6s.4,11.4,8.4,14.5,22.5,6.6,22.5,6.6,11.4,0,14.1,3.1,7,5.3,5.7,10.6.9,12.8-6.6,11.4S35.9,54,31,54.9,5.5,68.3,5.5,73.7s8.4,10.7,5.3,18.6-4,13.7-8.4,17.6,4,15,3.5,18.9S-2.3,150,1.1,152.6l3.5,2.6s14.1,4.4,15,9.2c.3,1.5.7,4,1.3,6.8Z"/>
</svg>
