<svg id="Capa_1" data-name="Capa 1" xmlns="http://www.w3.org/2000/svg" width="392.9" height="193.7" viewBox="0 0 392.9 193.7">
  <defs>
    <style>
      .cls-1 {
        fill: #e8e8e8;
        stroke: #fff;
        stroke-linecap: round;
        stroke-linejoin: round;
        stroke-width: 0.5px;
      }
    </style>
  </defs>
  <title>comuna-rural-9</title>
  <path id="comuna-9-laherradura" class="cls-1" d="M21.6,140.8l-8,4.9s5.6,8.5,6.9,9.8l11.8,8.2,10.4,1.1L57.5,168l19.7,6.8,9,7.2,17.9-3.6,6.4-6.1,5,2.5,18.6,4.3,11.5-5.4,16.1-3.2.4,3.6,21.9,6.1,16.5-4.7,9.7,2.5,5-2.5,26.2,10.7,10.7-3.9,10.4,2.1,14.7,9,76.4-15.7-1.7-44-16.6-3-21.1,3-7.9,4.1-14-4.1L271,137.6l-12.5,2.5-8.6.7-8.2-22.6-26.2-10.7-19-3.9-7.1,7.9-3.2,5-11.8-2.5-8.6,5-6.4-1.8-2.9,2.9-5.7.4-6.8,2.9-9,1.8-2.5-5-5-5.4-5-2.9-6.4,1.4-2.5,11.5L95.8,152.6,80,151.2,61,139l.4,9.5-27.6-4.8-3.6,4.8-4.7-2.7.4-3.6Z"/>
  <path id="comuna-9-coronado" class="cls-1" d="M231.9,101l-16.5,6.4,26.2,10.7,8.2,22.6,8.6-.7,12.5-2.5,21.1-3.8,14,4.1,7.9-4.1,21.1-3,16.6,3,1.7,44-2.3-58.3,7.1-13.3,2.7,1,2.1-4.7.6.5-.6,1.4,1.6.7.4-.7h1.1l1.3-3.1h3.1l.3-2.3h1.4v2l-.5,1.9,7.1,2.7-1.8,4.1,2,1.3,2.3.3-.9,3.1,4.4.6.6-3.1-2.1-.6.8-3.4,4.1.4v1.1l.7.7L387,115l5.6.6-2-19.7L385,50.3l-12.2-7.2-7.9-2.3h-5.7l-5.7,4.4L345,46.9l-6.6,6.2-8.8-4.3-8.1,5-5.7-1.4-9-.4L293.9,48,274.6,65.6,267,63.1l-14,6.1-1.4,3.6s-7.5,3.6-8.6,6.8S234.9,99.9,231.9,101Z"/>
  <path id="comuna-9-obando" class="cls-1" d="M147,28.5l-31.2,84.7,6.4-1.4,5,2.9,5,5.4,2.5,5,9-1.8,6.8-2.9,5.7-.4,2.9-2.9,6.4,1.8,8.6-5,11.8,2.5,3.2-5,7.1-7.9,19,3.9,16.5-6.4c2.9-1.1,10-18.3,11.1-21.5s8.6-6.8,8.6-6.8l1.4-3.6,14-6.1,7.5,2.5L293.9,48l12.9,3.9,9,.4,5.7,1.4,8.1-5L312,38.6l-19.4-2.2-19.4-5.7-21.1,2.6-26-11.4-9.7-11L201.9,21.4l-8.8,7.1L187.8,32l-11.4-3.5-5.7-3.1-14.5.9-2.6,2.3Z"/>
  <path id="comuna-9-matapalo" class="cls-1" d="M139.8,28.5l-14.1-7.5-7,3.1L109,13.9,95.8,6.4l-11-2.6L72,9.1l-17.6.9L39,9.1,24.9,12.1,1.1.3s-1.3.9,0,5.3S6.9,13,6,17.9s7.9,10.6,7.9,10.6-5.7,11.8-8.8,14L2,44.7l6.2,15s0,11.9-4,18.1S3.1,94.6.6,100.5s11.2,4.1,11.2,4.1l-4.4,9.2a30.5,30.5,0,0,0-6.2,6.6c-2.2,3.5,5.7,14.5,5.7,14.5s3.3,5.4,6.8,10.7l8-4.9,4.3,1.4-.4,3.6,4.7,2.7,3.6-4.8,27.6,4.8L61,139l19,12.2,15.8,1.4,17.6-27.9,2.5-11.5L147,28.5Z"/>
</svg>
