<svg xmlns="http://www.w3.org/2000/svg" width="176mm" height="94.4mm" viewBox="0 0 498.8 267.6">
      <path id="comuna-9-palmaseca" data-name="Palmaseca" d="M27.2,155.5c-2.9-2.9-13.7-20.6-13.7-20.6L6.9,147.8,2.5,171.1S1.2,181.7.3,184.7s7.9,8.8,7.9,8.8a40.1,40.1,0,0,0-3.5,10.1c-1.3,6.2,4.8,10.1,4.8,10.1l-2.2,7.5s-7,6.6-7,13.7,10.6,5.4,10.6,5.4l3.5-3,6.6,3,3.1,11.8,83.2-18.9,3.5,4.1h8.8l11.4,3,10.4,6.5,11.2,1.8,5.3-4.4,23.8,8.8,16.4,1.4,12.3,4.3,29.5-1.7,19.6,10.3,6.2-3.2,7.3-1.5,17.2-6.2,3-4.3,5-.9,24.8-8.8,19.4,1.1,18.3-5,20.6-7.2v-2.5l.8-1.5.7-1.7-1.3-1.9.3-1.5.7-2.4,1.6-2.1,1.5-10.2h-2.3l-.4-3.4,1.4-6.6-8.6,2.6-.4-2.7-.7-2.3-.7-19.2-4.2-.2-9.6,2.1-76.4,15.7-14.7-9-10.4-2.1-10.7,3.9-26.2-10.7-5,2.5-9.7-2.5-16.5,4.7-21.9-6.1-.4-3.6-16.1,3.2-11.5,5.4-18.6-4.3-5-2.5-6.4,6.1L92.8,182l-9-7.2L64.1,168l-14.7-3.2L39,163.7Z"/>
      <path id="comuna-9-laherradura" data-name="La Herradura" d="M28.3,140.8l-8,4.9s5.6,8.5,6.9,9.8L39,163.7l10.4,1.1L64.1,168l19.7,6.8,9,7.2,17.9-3.6,6.4-6.1,5,2.5,18.6,4.3,11.5-5.4,16.1-3.2.4,3.6,21.9,6.1,16.5-4.7,9.7,2.5,5-2.5,26.2,10.7,10.7-3.9,10.4,2.1,14.7,9,76.4-15.7-1.7-44-16.6-3-21.1,3-7.9,4.1-14-4.1-21.1,3.8-12.5,2.5-8.6.7-8.2-22.6-26.2-10.7-19-3.9-7.1,7.9-3.2,5-11.8-2.5-8.6,5-6.4-1.8L163,120l-5.7.4-6.8,2.9-9,1.8-2.5-5-5-5.4-5-2.9-6.4,1.4L120,124.7l-17.6,27.9-15.8-1.4L67.7,139l.4,9.5-27.6-4.8-3.6,4.8-4.7-2.7.4-3.6Z"/>
      <path id="comuna-9-coronado" data-name="Coronado" d="M238.6,101l-16.5,6.4,26.2,10.7,8.2,22.6,8.6-.7,12.5-2.5,21.1-3.8,14,4.1,7.9-4.1,21.1-3,16.6,3,1.7,44-2.3-58.3,7.1-13.3,2.7,1,2.1-4.7.6.5-.6,1.4,1.6.7.4-.7h1.1l1.3-3.1h3.1l.3-2.3h1.4v2l-.5,1.9,7.1,2.7-1.8,4.1,2,1.3,2.3.3-.9,3.1,4.4.6.6-3.1-2.1-.6.8-3.4,4.1.4v1.1l.7.7-2.1,4.8,5.6.6-2-19.7-5.7-45.6-12.2-7.2-7.9-2.3h-5.7l-5.7,4.4-8.4,1.8-6.6,6.2-8.8-4.3-8.1,5-5.7-1.4-9-.4L300.6,48,281.2,65.6l-7.5-2.5-14,6.1-1.4,3.6s-7.5,3.6-8.6,6.8S241.5,99.9,238.6,101Z"/>
      <path id="comuna-9-obando" data-name="Obando" d="M153.7,28.5l-31.2,84.7,6.4-1.4,5,2.9,5,5.4,2.5,5,9-1.8,6.8-2.9,5.7-.4,2.9-2.9,6.4,1.8,8.6-5,11.8,2.5,3.2-5,7.1-7.9,19,3.9,16.5-6.4c2.9-1.1,10-18.3,11.1-21.5s8.6-6.8,8.6-6.8l1.4-3.6,14-6.1,7.5,2.5L300.6,48l12.9,3.9,9,.4,5.7,1.4,8.1-5L318.7,38.6l-19.4-2.2-19.4-5.7-21.1,2.6-26-11.4-9.7-11L208.6,21.4l-8.8,7.1L194.5,32,183,28.5l-5.7-3.1-14.5.9-2.6,2.3Z"/>
      <path id="comuna-9-matapalo" data-name="Matapalo" d="M146.5,28.5l-14.1-7.5-7,3.1-9.7-10.1L102.5,6.4l-11-2.6L78.7,9.1l-17.6.9L45.7,9.1,31.6,12.1,7.8.3s-1.3.9,0,5.3,5.7,7.5,4.8,12.3,7.9,10.6,7.9,10.6-5.7,11.8-8.8,14L8.7,44.7l6.2,15s0,11.9-4,18.1S9.7,94.6,7.2,100.5s11.2,4.1,11.2,4.1L14,113.9a30.5,30.5,0,0,0-6.2,6.6c-2.2,3.5,5.7,14.5,5.7,14.5s3.3,5.4,6.8,10.7l8-4.9,4.3,1.4-.4,3.6,4.7,2.7,3.6-4.8,27.6,4.8-.4-9.5,19,12.2,15.8,1.4L120,124.7l2.5-11.5,31.2-84.7Z"/>
      <polygon id="comuna-9-zamorano" data-name="Zamorano" points="462 148 469.2 146.2 474.8 143.5 474.7 123.9 483.8 116.7 497.7 104.4 497.4 100.5 489.9 89.2 494.5 89.2 490.3 80.8 495.2 79.3 498.6 74.7 486 75.6 479.5 75.6 475.1 79.1 465.3 78 463 81.4 455.1 77.7 451.6 81.4 438.6 80.3 426.9 78.2 423.7 76.1 419.3 78.2 418.6 74.5 413.9 75.4 409.5 71.7 407.9 67.9 405.5 62.4 401.4 56.6 399.3 54.2 395.1 54.5 393.4 51.7 391.6 50.3 397.3 95.8 398.6 96.2 399.4 94.6 401.4 95.3 401.7 96.3 402.5 96.5 403.6 95.5 404.9 95.8 404.9 95 405.7 94.6 406.4 96.2 409.7 96.8 410.7 97.8 413.1 97.1 414.6 98.2 416.8 97.1 418.1 99.5 419.5 97.8 420.8 98.3 422.6 100.5 424.8 99.7 429.5 101.1 430 99.2 442.4 102.6 448.9 105.1 453.5 106.7 454 112 452.3 112.3 450.8 118.7 437 122.4 443.3 123.1 438.1 136.5 442.3 137.6 443.3 137.2 445.5 137.2 445.5 151 462 148"/>
</svg>
