<svg xmlns="http://www.w3.org/2000/svg" width="119.9mm" height="58.5mm" viewBox="0 0 339.8 165.7">

      <polygon id="comuna-11-boloalizal" class="cls-1" points="158.6 139.8 169.9 142 166 151.7 162.3 151.5 148.8 146.3 141 149.6 131.5 152.6 125.9 148.7 109.6 150.8 88.9 156.9 82.7 154.3 79.9 165.5 67.8 162.5 56.2 159.8 46.3 161 33 154.3 22.2 157.1 3.7 154.9 0.3 153 0.3 139.7 1.3 118.1 1.3 92.1 18.8 96.2 36.2 103.1 48 115.1 57.1 111.2 60.9 99.6 56.6 97.7 48.9 94.2 50.2 90.1 48.5 86.5 43.3 86.7 36.4 82.8 34.3 78.7 29.3 77 28 73.4 23.7 71.9 18.3 67.8 15.1 63.7 56.9 51 69.1 55.3 98.6 53.6 118.2 63.9 124.4 60.7 131.8 59.2 149 52.9 152 48.6 156.9 47.7 181.7 38.9 201.1 40 219.4 35.1 227.8 32.1 197.7 71.3 191.3 88.4 189.1 112 178.4 108.2 169.9 101.2 161.3 98.8 160.2 91.6 155.4 94.3 149 87.3 130.7 93.2 126.5 101.2 119.5 104.5 114 107.1 110.9 113 122.2 116.2 130.2 120 137.2 123.2 141.5 130.7 147.9 131.2 158.6 139.8"/>
      <polygon id="comuna-11-bololaitalia" class="cls-1" points="194 113.7 189.1 112 191.3 88.4 197.7 71.3 227.8 32.1 240 27.9 244.3 25.7 245.7 24.4 246.1 25.2 242.3 36.9 258 36.4 275.4 36 275.5 27.9 289.2 24.3 289.3 6.2 316.3 6.2 322.1 3.5 322.1 4.3 326.4 0.3 339.6 13.9 329.7 24.8 326.1 23.3 320.4 26.9 311 32.6 311 48.7 306.4 60.6 295.8 66.4 288.2 72.1 278.3 74.1 271.1 111 266.7 112.3 267.1 117.1 262.2 117.3 255.5 113.6 249.9 111.5 243 112.5 237.4 120.7 229 124.6 229.5 116.2 225.7 108.8 225.7 102.8 215.9 106.1 212.3 109.9 198 109.9 194 113.7"/>
      <polygon id="comuna-11-bolosanisidro" class="cls-1" points="229.5 116.2 225.7 108.8 225.7 102.8 215.9 106.1 212.3 109.9 198 109.9 194 113.7 189.1 112 178.4 108.2 169.9 101.2 161.3 98.8 160.2 91.6 155.4 94.3 149 87.3 130.7 93.2 126.5 101.2 119.5 104.5 114 107.1 110.9 113 122.2 116.2 130.2 120 137.2 123.2 141.5 130.7 147.9 131.2 158.6 139.8 169.9 142 185.1 148.3 193.1 147.8 195.2 145 200 147.2 206 144 204.7 139.2 211.4 138.4 212.9 140.3 216.6 138.4 217.8 140.1 221.3 137.7 224.9 132.8 229.5 129.5 229 124.6 229.5 116.2"/>

</svg>
