<svg xmlns="http://www.w3.org/2000/svg" width="105.2mm" height="99.6mm" viewBox="0 0 298.2 282.4">

      <path id="comuna-13-tiendanueva" d="M 157.5 157 160.8 161.4 165.4 160.2 165.4 157.7 161.5 154.1 159.6 149.6 155.7 144.7 154.1 138.1 152.6 132.9 149.7 129.2 144.8 119.8 145.8 115.3 145.1 105.5 142.3 92 143.8 83.2 131.8 82.5 118.6 95 114.4 96.4 112.8 99.9 99 104.3 98.3 110.1 95.1 109.9 92.5 118.5 86 122.7 86 129 84.6 136.4 80.2 138.1 72.8 134.8 63 125 52.8 126.4 37.9 123.6 34.5 128.2 49.3 128.8 56.7 135.6 64.1 150.9 74 174.3 77.9 176 81.6 178.8 85.7 178.8 92.3 177.8 99.9 174.9 108.8 173.3 115.6 170.6 120.9 167.5 128.6 166.3 132.2 168.1 136.4 164.9 144.8 160.2 149.7 157.4 157.5 157z"/>
      <path id="comuna-13-tablones" d="M 294.9 80.4 295.4 70.7 295.9 57.5 292.8 49.4 288.1 37.5 288.1 23.9 281.4 24.8 265.7 28.8 256.8 26 245.6 22.5 245.6 14.2 233.3 10.3 222.1 7 217.1 3.6 205.3 0.3 196.4 3.6 185.4 1.9 182.8 10.8 185.4 24.3 187.5 33.4 190 41.1 187.5 58.3 185.1 65.3 173.2 72.2 158.4 112.7 153.5 116.9 145.8 115.3 144.8 119.8 149.7 129.2 152.6 132.9 154.1 138.1 155.7 144.7 159.6 149.6 161.5 154.1 165.4 157.7 176.4 155.6 176.4 146.9 179.6 142.4 180.7 137.8 186.5 137.8 186.9 129.7 183.4 122.1 183.2 115.6 187.5 111.5 188.8 100.4 200.3 102.9 204.2 101 209.5 97.4 218.2 99.6 223.3 98.2 229.7 98.9 240.7 99.4 244.1 93.6 247.1 95.4 257.6 98.2 265 108.8 278.3 110.6 290.3 105.4 297.4 96.3 297.9 83.5 294.9 80.4z"/>
      <path id="comuna-13-barrancas" d="M 157.5 157 149.7 157.4 144.8 160.2 136.4 164.9 132.1 168.1 128.6 166.3 120.9 167.5 115.6 170.6 108.8 173.3 99.9 174.9 92.3 177.8 85.7 178.8 81.6 178.8 77.9 176 74.9 174.7 73.9 180.4 74.4 214 100.1 260.5 128.8 282.2 129 269.2 133.6 263 137.2 253.5 138.5 238.4 138 233.1 141.6 230.5 141.7 227.3 145.2 226.2 149.7 225 160.8 161.4 157.5 157z"/>
      <path id="comuna-13-guayabal" d="M74.9,174.7l-.9-.4-9.9-23.3-7.4-15.4-7.4-6.8-14.8-.5-4.9,1.5,4.2,8.4H29.2l7.5,11.3.3,3.9L23.1,165.7,14,172.8v19.7l3.9-1.6-2.4,2-2.2,1.6L11.1,199l-1.6.6-.9,1.3-3,1.6s-3.1.4-2.8,1.4-.1,1.5-.1,1.5l-1.6.2-1,1.1c3.6.1,3.9,3,3.9,3v8.6l2.3-.6,19.1,5.1.5,2.6L74.4,214l-.5-33.7Z"/>

</svg>
