<svg id="mapa-com-urbanas" data-name="Comunas Urbanas" xmlns="http://www.w3.org/2000/svg" width="363.3" height="408.4" viewBox="0 0 363.3 408.4">
  <g>
    <title>Comuna 1</title>
    <path id="comuna-1" data-name="Comuna 1" d="M5.4,105.4l-3.8.5L.3,69.8l20-37.4,7.6,2.8L33.6,22l1.8,1.4-1.8,4L38,29.5l1.2-2.1,3.2.4L46,19l8.6.4.8-6.5h3.8v5.5l-1.4,5.2,20,7.6-5,11.6,5.6,3.6,6.4.8-2.4,8.6,12.4,1.6,1.8-8.6-5.8-1.6L93,37.6l11.6,1.2v3l2,2-6,13.4,15.8,1.6L110.8,3.6l3.8,1L116.8.3l5.4,2,1,2.8,2.2.4,3.2-2.8,3.6.8V1.2l2.2-1,1.8,4.4,9.4,1.6,2.8,3,6.8-2,4.2,3,6-3,3.6,6.6,4-4.6,3.6,1.2,5.2,6.2,6-2.2,13.2,3.8,1.4-5.3,34.8,9.5,18.2,7,13,4.6,1.2,15-4.8.6-4.2,18L222.1,78,181.8,66.2l-8.4,21-4.2-1.4-2.8,4.9-10.5,5.6-31.5,4.2V98.4l-2.8,1.4v6.3h-2.8l-4.2,4.9-2.8,2.1H84.5a4.8,4.8,0,0,1-5.6,1.4L70.5,111H62.8l-7-2.1s-7.7,0-8.4,1.4-7,0-7,0H36.2l-2.8,1.4-2.1-1.4-4.2,2.1-2.8-2.1H20.1l-5.6-2.8-3.5-.7-2.8.7Z"/>
  </g>
  <g>
    <title>Comuna 2</title>
    <path id="comuna-2" data-name="Comuna 2" d="M10.3,163.5,4,165.1,1.7,105.9l3.8-.5,2.8,2.1,2.8-.7,3.5.7,5.6,2.8h4.2l2.8,2.1,4.2-2.1,2.1,1.4,2.8-1.4h4.2s6.3,1.4,7,0,8.4-1.4,8.4-1.4l7,2.1h7.7l8.4,3.5a4.8,4.8,0,0,0,5.6-1.4h27.3l2.8-2.1,4.2-4.9h2.8V99.8l2.8-1.4v2.1l31.5-4.2,10.5-5.6,2.8-4.9,4.2,1.4,8.4-21L222.1,78l17.6,2-14.6,37.4,11.6,3.2,2.8-1.2h6.4l-.2,38.8,46.4-8.4,20.2-5.2,15.6-7.4,10.8-4.4-6.6,5.6-6.2,4.4-6.4,12.6-4.4,1.6-2.4,3.6-8.4,4.6s-8.8,1-7.8,4-.2,4.2-.2,4.2l-4.4.6-2.8,3.2-86.2-1.1L179,172.6l-2.1,11.9-23.8-4.2,2.1-10.5-46.9-5.6Z"/>
  </g>
  <g>
    <title>Comuna 3</title>
    <path id="comuna-3" data-name="Comuna 3" d="M98.5,218.8,87.2,164l-76.9-.5L4,165.1l2.7,67.9,27-5.8,11.8.6,2,53.8,2,6.4,1.2,7.6,24-7.2s8-3.3,10.6-4.6,9.1-2.1,12.6-21l7-41.3Z"/>
  </g>
  <g>
    <title>Comuna 4</title>
    <path id="comuna-4" data-name="Comuna 4" d="M112.5,227.2c-1.4-2.8-7.7-5.6-7.7-5.6l-6.3-2.8L87.2,164l21.1.2,46.9,5.6-2.1,10.5,23.8,4.2,2.1-11.9,23.8,3.5,1.4,37.1v18.2l1.4,4.9-5.6,1.4-5.6-.7-7.7,2.1h-5.6l-6.3-.7-5.6-.7-4.9-4.9-18.9-2.1-18.2-3.5-4.2,2.1Z"/>
  </g>
  <g>
    <title>Comuna 5</title>
    <path id="comuna-5" data-name="Comuna 5" d="M276.3,276.2l19.1,16.1s-9-11.4-1.2-28.8l13.6-.6,10-1.8,18.4-15.8,26.8-6.6-3.4-16.4-53.4-14.4-6.4,1.6.2-24s-1-8-11-8.4l-86.2-1.1,1.4,37.1v18.2l1.4,4.9,6.3-1.4h7L217.5,251l18.2,2.1-2.1,8.4Z"/>
  </g>
  <g>
    <title>Comuna 6</title>
    <path id="comuna-6" data-name="Comuna 6" d="M215.4,275.5l17.9,46.8h46.2l16.4-7.6V317l12-11.4-12.4-13.4-19.1-16.1-42.7-14.7,2.1-8.4L217.5,251l1.4-16.1h-7l-6.3,1.4-5.6,1.4-5.6-.7-7.7,2.1h-5.6l-6.3-.7-5.6-.7-4.9-4.9-18.9-2.1-18.2-3.5-4.2,2.1-10.5-2.1c-1.4-2.8-7.7-5.6-7.7-5.6l-6.6,38.8L181.8,272Z"/>
  </g>
  <g>
    <title>Comuna 7</title>
    <path id="comuna-7" data-name="Comuna 7" d="M181.8,272,98.2,260.4l-.4,2.5c-3.5,18.9-11.2,20.3-12.6,21s-10.6,4.6-10.6,4.6l-3.8,18.4,1.2,9.4h6.4l-4.2,28.6-4.6,5.8-2,6.8-.8,4.2,3.6,5.4-2,4.8L66.2,376l-.4,7,12-6.2,4-3.4,1,2L72.2,408.2l44-1.2,48.8-1.2.4-22.6L203.5,373l.4-50.8h29.4l-17.9-46.8Z"/>
  </g>
</svg>
