<svg id="layer_1" data-name="layer 1" xmlns="http://www.w3.org/2000/svg" width="134.3" height="143.3" viewBox="0 0 134.3 143.3">
  <defs>
    <style>
      .cls-1 {
        fill: #3d6666;
      }
    </style>
  </defs>
  <title>icon-personas</title>
  <g>
    <path class="cls-1" d="M40.3,112c-1.8,4.2-5.7,4.5-9,4.5s-7.6-3.9-9-9.8L17.8,84.2a4.5,4.5,0,0,0-4.4-3.6C9,80.6,9,80.6,8.9,72c1.4-16.9,5.4-23.1,11.8-28.2l.8-.8.3-.4a21.8,21.8,0,0,0,18.5.3V32.4A13.4,13.4,0,1,1,44,17.9h9.1C50.9,7.9,42,0,31.3,0A22.3,22.3,0,0,0,14.7,37.2C5.6,44.7,1.4,54.3,0,71.7c0,7.5,0,16,9.7,17.6l3.9,19.3c2.6,10.2,9.5,16.8,17.8,16.8a15.2,15.2,0,0,0,9-3Z"/>
    <path class="cls-1" d="M94.1,122.4a15.3,15.3,0,0,0,9,3c8.2,0,15.2-6.6,17.8-17l3.8-19.1c9.7-1.7,9.7-10.1,9.7-18-1.4-17-5.5-26.6-14.6-34.1A22.3,22.3,0,0,0,103,0C92.3,0,83.5,7.9,81.2,17.9h9.1A13.5,13.5,0,1,1,94,32.4V42.9a21.8,21.8,0,0,0,18.5-.3l.3.4.8.8c6.4,5.1,10.4,11.4,11.8,27.9,0,9,0,9-4.5,9a4.5,4.5,0,0,0-4.4,3.6l-4.4,22.2c-1.5,6.1-5.1,10-9.1,10s-7.2-1.7-9-4.5Z"/>
    <path class="cls-1" d="M98.5,89.2c-1.4-17-5.5-26.6-14.6-34.1a22.4,22.4,0,1,0-33.4,0c-9.1,7.5-13.2,17.1-14.7,34.5,0,7.5,0,16,9.7,17.6l3.9,19.3c2.6,10.2,9.5,16.8,17.8,16.8h0c8.2,0,15.2-6.6,17.8-17l3.8-19.1C98.5,105.5,98.5,97.1,98.5,89.2ZM67.2,26.9A13.4,13.4,0,1,1,53.7,40.3,13.5,13.5,0,0,1,67.2,26.9ZM85.1,98.5a4.5,4.5,0,0,0-4.4,3.6l-4.4,22.2c-1.5,6.1-5.1,10-9.1,10s-7.6-3.9-9-9.8l-4.5-22.4a4.5,4.5,0,0,0-4.4-3.6c-4.5,0-4.5,0-4.5-8.6,1.4-16.9,5.4-23.1,11.8-28.2l1.1-1.2c3.8,1.7,14,2.2,19.1,0l1.1,1.2c6.4,5.1,10.4,11.4,11.8,27.9C89.6,98.5,89.6,98.5,85.1,98.5Z"/>
  </g>
</svg>
