<svg id="layer_1" data-name="layer 1" xmlns="http://www.w3.org/2000/svg" width="125.8" height="143.3" viewBox="0 0 125.8 143.3">
  <defs>
    <style>
      .cls-1 {
        fill: #3d6666;
      }
    </style>
  </defs>
  <title>icon-mujer</title>
  <path class="cls-1" d="M125.4,110.5l-5.9-17.8a35.2,35.2,0,0,0-12.4-17.1L103.2,73V35.8C103.2,14.4,82.4,0,62.9,0S22.6,14.4,22.6,35.8V73l-4,2.8a35.1,35.1,0,0,0-12.3,17L.5,110.3a7.8,7.8,0,0,0,1,7.4c3.6,5.3,14.3,9.8,21.1,11.5a4.5,4.5,0,0,0-.1.7c0,7.8,11.1,10.3,14.7,11.1a124,124,0,0,0,25.6,2.3c15.1,0,40.3-1.7,40.3-13.4a4.5,4.5,0,0,0-.1-.7c6.8-1.7,17.5-6.1,21.1-11.5A7.7,7.7,0,0,0,125.4,110.5ZM62.9,9C77.7,9,94.3,20,94.3,35.8V67.8l-4.5-3V41.2a10.5,10.5,0,0,0-8.6-10.3c-3.6-.7-8.1-1.9-12.9-3.2s-10.7-2.9-15.9-3.9a13.5,13.5,0,0,0-11.3,2.8,13.7,13.7,0,0,0-5,10.7V64.8l-4.5,3V35.8C31.6,20,48.1,9,62.9,9ZM45,55.8V37.3a4.8,4.8,0,0,1,1.8-3.7,4.6,4.6,0,0,1,3.8-1c4.9,1,10.2,2.4,15.3,3.8s9.7,2.6,13.6,3.3a1.5,1.5,0,0,1,1.3,1.5V55.8a26.7,26.7,0,0,1-35.8,0ZM43,70.9a4.5,4.5,0,0,0,1.9-2.6l1.2-.8a35.8,35.8,0,0,0,33.7,0l1.2.8a4.5,4.5,0,0,0,1.9,2.6l8.9,6L74.3,85.6A4.5,4.5,0,0,0,72.1,88l-9.2,15.7L53.7,88a4.5,4.5,0,0,0-1.9-2.3L35.5,75.9Zm58.4,49.5-2.8-13.8a4.5,4.5,0,0,0-8.8,1.8l4.2,21.2c-2.3,1.9-12.8,4.8-31.2,4.8s-28.9-3-31.2-4.8l4.2-21.2a4.5,4.5,0,0,0-8.8-1.8l-2.8,13.8c-5-1.3-13.6-5.1-15.3-7.5l5.8-17.3a26.1,26.1,0,0,1,9-12.6l2.7-1.9L45.8,92.6l12.9,20.9a4.5,4.5,0,0,0,8.4,0L79.9,92.8l21-10.5.9.6A26.2,26.2,0,0,1,111,95.6l5.8,17.3C115,115.4,106.4,119.1,101.4,120.4Z"/>
</svg>
